<svg width="32" height="32" viewBox="0 0 32 32" fill="none" xmlns="http://www.w3.org/2000/svg">
  <rect width="32" height="32" rx="6" fill="#3b82f6"/>
  <path d="M16 8C11.5817 8 8 11.5817 8 16C8 20.4183 11.5817 24 16 24C17.4863 24 18.8745 23.5895 20.0494 22.8809L22.8284 25.6599C23.2189 26.0504 23.852 26.0504 24.2426 25.6599C24.6331 25.2694 24.6331 24.6362 24.2426 24.2457L21.4636 21.4667C22.4301 20.0946 23 18.4105 23 16C23 11.5817 19.4183 8 16 8ZM10 16C10 12.6863 12.6863 10 16 10C19.3137 10 22 12.6863 22 16C22 19.3137 19.3137 22 16 22C12.6863 22 10 19.3137 10 16Z" fill="white"/>
  <circle cx="16" cy="16" r="3" fill="white"/>
</svg>