<svg width="32" height="32" viewBox="0 0 32 32" fill="none" xmlns="http://www.w3.org/2000/svg">
  <circle cx="16" cy="16" r="14" fill="#2563eb" fillOpacity="0.1"/>
  <path d="M16 6C10.48 6 6 10.48 6 16C6 21.52 10.48 26 16 26C18.65 26 21 24.83 22.62 22.94L20.55 20.87C19.36 22.06 17.76 22.8 16 22.8C12.24 22.8 9.2 19.76 9.2 16C9.2 12.24 12.24 9.2 16 9.2C19.76 9.2 22.8 12.24 22.8 16C22.8 16.88 22.66 17.73 22.4 18.52L24.85 20.97C25.5 19.65 25.6 18.01 25.6 16C25.6 10.48 21.52 6 16 6Z" fill="#2563eb"/>
  <path d="M20.8 20.8L25.6 25.6L27.2 24L22.4 19.2Z" fill="#2563eb"/>
  <circle cx="16" cy="16" r="2.5" fill="#2563eb" fillOpacity="0.3"/>
</svg>